G04 #@! TF.GenerationSoftware,KiCad,Pcbnew,9.0.7*
G04 #@! TF.CreationDate,2026-01-18T21:54:30+01:00*
G04 #@! TF.ProjectId,dumbpad,64756d62-7061-4642-9e6b-696361645f70,rev?*
G04 #@! TF.SameCoordinates,Original*
G04 #@! TF.FileFunction,Soldermask,Bot*
G04 #@! TF.FilePolarity,Negative*
%FSLAX46Y46*%
G04 Gerber Fmt 4.6, Leading zero omitted, Abs format (unit mm)*
G04 Created by KiCad (PCBNEW 9.0.7) date 2026-01-18 21:54:30*
%MOMM*%
%LPD*%
G01*
G04 APERTURE LIST*
%ADD10R,1.700000X1.700000*%
%ADD11O,1.700000X1.700000*%
%ADD12C,3.000000*%
%ADD13C,5.100000*%
%ADD14C,1.627000*%
%ADD15O,3.127000X3.302000*%
%ADD16O,3.127000X3.314500*%
%ADD17R,2.550000X2.475000*%
%ADD18R,2.550000X2.550000*%
%ADD19C,2.006600*%
%ADD20C,1.300000*%
%ADD21C,2.100000*%
%ADD22C,1.477000*%
G04 APERTURE END LIST*
D10*
X113900000Y-104000000D03*
D11*
X111360000Y-104000000D03*
X108820000Y-104000000D03*
X106280000Y-104000000D03*
D12*
X182751100Y-138103600D03*
D13*
X187151100Y-133403600D03*
D12*
X189751100Y-139153600D03*
D14*
X179651100Y-130903600D03*
X179651100Y-135603600D03*
X179651100Y-133403600D03*
D15*
X187151100Y-139503600D03*
D16*
X187151100Y-127309850D03*
D14*
X194151100Y-130903600D03*
X194151100Y-135903600D03*
D17*
X178876100Y-138141100D03*
D18*
X193626100Y-139153600D03*
D12*
X182751100Y-80953600D03*
D13*
X187151100Y-76253600D03*
D12*
X189751100Y-82003600D03*
D14*
X179651100Y-73753600D03*
X179651100Y-78453600D03*
X179651100Y-76253600D03*
D15*
X187151100Y-82353600D03*
D16*
X187151100Y-70159850D03*
D14*
X194151100Y-73753600D03*
X194151100Y-78753600D03*
D17*
X178876100Y-80991100D03*
D18*
X193626100Y-82003600D03*
D12*
X125601100Y-138103600D03*
D13*
X130001100Y-133403600D03*
D12*
X132601100Y-139153600D03*
D14*
X122501100Y-130903600D03*
X122501100Y-135603600D03*
X122501100Y-133403600D03*
D15*
X130001100Y-139503600D03*
D16*
X130001100Y-127309850D03*
D14*
X137001100Y-130903600D03*
X137001100Y-135903600D03*
D17*
X121726100Y-138141100D03*
D18*
X136476100Y-139153600D03*
D12*
X105651100Y-138103600D03*
D13*
X110051100Y-133403600D03*
D12*
X112651100Y-139153600D03*
D14*
X102551100Y-130903600D03*
X102551100Y-135603600D03*
X102551100Y-133403600D03*
D15*
X110051100Y-139503600D03*
D16*
X110051100Y-127309850D03*
D14*
X117051100Y-130903600D03*
X117051100Y-135903600D03*
D17*
X101776100Y-138141100D03*
D18*
X116526100Y-139153600D03*
D12*
X125601100Y-80953600D03*
D13*
X130001100Y-76253600D03*
D12*
X132601100Y-82003600D03*
D14*
X122501100Y-73753600D03*
X122501100Y-78453600D03*
X122501100Y-76253600D03*
D15*
X130001100Y-82353600D03*
D16*
X130001100Y-70159850D03*
D14*
X137001100Y-73753600D03*
X137001100Y-78753600D03*
D17*
X121726100Y-80991100D03*
D18*
X136476100Y-82003600D03*
D19*
X106997600Y-114228800D03*
X113500000Y-114228800D03*
X106997600Y-118750000D03*
X113500000Y-118750000D03*
D20*
X117671100Y-69550000D03*
X102431100Y-69550000D03*
D19*
X117671100Y-72053600D03*
X117671100Y-74593600D03*
X117671100Y-77133600D03*
X117671100Y-79673600D03*
X117671100Y-82213600D03*
X117671100Y-84753600D03*
X117671100Y-87293600D03*
X117671100Y-89833600D03*
X117671100Y-92373600D03*
X117671100Y-94913600D03*
X117671100Y-97453600D03*
X117671100Y-99993600D03*
X102431100Y-99993600D03*
X102431100Y-97453600D03*
X102431100Y-94913600D03*
X102431100Y-92373600D03*
X102431100Y-89833600D03*
X102431100Y-87293600D03*
X102431100Y-84753600D03*
X102431100Y-82213600D03*
X102431100Y-79673600D03*
X102431100Y-77133600D03*
X102431100Y-74593600D03*
X102431100Y-72053600D03*
D12*
X182751100Y-119053600D03*
D13*
X187151100Y-114353600D03*
D12*
X189751100Y-120103600D03*
D18*
X178876100Y-119053600D03*
X193626100Y-120103600D03*
D12*
X125601100Y-119053600D03*
D13*
X130001100Y-114353600D03*
D12*
X132601100Y-120103600D03*
D18*
X121726100Y-119053600D03*
X136476100Y-120103600D03*
D21*
X178600000Y-84900000D03*
D22*
X139500000Y-76520000D03*
X139500000Y-68900000D03*
D12*
X144651100Y-138103600D03*
D13*
X149051100Y-133403600D03*
D12*
X151651100Y-139153600D03*
D18*
X140776100Y-138103600D03*
X155526100Y-139153600D03*
D21*
X178600000Y-124900000D03*
D22*
X158600000Y-76520000D03*
X158600000Y-68900000D03*
D12*
X163701100Y-138103600D03*
D13*
X168101100Y-133403600D03*
D12*
X170701100Y-139153600D03*
D18*
X159826100Y-138103600D03*
X174576100Y-139153600D03*
D22*
X126000000Y-85900000D03*
X133620000Y-85900000D03*
X183600000Y-85900000D03*
X191220000Y-85900000D03*
X145500000Y-123800000D03*
X153120000Y-123800000D03*
X120500000Y-134220000D03*
X120500000Y-126600000D03*
X120500000Y-96720000D03*
X120500000Y-89100000D03*
X183400000Y-123800000D03*
X191020000Y-123800000D03*
X120500000Y-115320000D03*
X120500000Y-107700000D03*
X164300000Y-123800000D03*
X171920000Y-123800000D03*
D12*
X144651100Y-119053600D03*
D13*
X149051100Y-114353600D03*
D12*
X151651100Y-120103600D03*
D18*
X140776100Y-119053600D03*
X155526100Y-120103600D03*
D12*
X163701100Y-100003600D03*
D13*
X168101100Y-95303600D03*
D12*
X170701100Y-101053600D03*
D18*
X159826100Y-100003600D03*
X174576100Y-101053600D03*
D12*
X125601100Y-100003600D03*
D13*
X130001100Y-95303600D03*
D12*
X132601100Y-101053600D03*
D18*
X121726100Y-100003600D03*
X136476100Y-101053600D03*
D22*
X177600000Y-115320000D03*
X177600000Y-107700000D03*
D12*
X163701100Y-119053600D03*
D13*
X168101100Y-114353600D03*
D12*
X170701100Y-120103600D03*
D18*
X159826100Y-119053600D03*
X174576100Y-120103600D03*
D22*
X139600000Y-115320000D03*
X139600000Y-107700000D03*
D21*
X138600000Y-84900000D03*
D12*
X182751100Y-100003600D03*
D13*
X187151100Y-95303600D03*
D12*
X189751100Y-101053600D03*
D18*
X178876100Y-100003600D03*
X193626100Y-101053600D03*
D22*
X159000000Y-115320000D03*
X159000000Y-107700000D03*
D12*
X144651100Y-100003600D03*
D13*
X149051100Y-95303600D03*
D12*
X151651100Y-101053600D03*
D18*
X140776100Y-100003600D03*
X155526100Y-101053600D03*
D21*
X138600000Y-124900000D03*
D22*
X126200000Y-123800000D03*
X133820000Y-123800000D03*
X139500000Y-96720000D03*
X139500000Y-89100000D03*
D12*
X163701100Y-80953600D03*
D13*
X168101100Y-76253600D03*
D12*
X170701100Y-82003600D03*
D18*
X159826100Y-80953600D03*
X174576100Y-82003600D03*
D22*
X158900000Y-96720000D03*
X158900000Y-89100000D03*
D12*
X144651100Y-80953600D03*
D13*
X149051100Y-76253600D03*
D12*
X151651100Y-82003600D03*
D18*
X140776100Y-80953600D03*
X155526100Y-82003600D03*
D22*
X177700000Y-96720000D03*
X177700000Y-89100000D03*
M02*
